<svg xmlns="http://www.w3.org/2000/svg" viewBox="0 0 245 240"><path fill="#ffffff" d="M104.4 104.2c-5.7 0-10.2 5-10.2 11.2s4.6 11.2 10.2 11.2c5.7 0 10.3-5 10.2-11.2 0-6.2-4.6-11.2-10.2-11.2zm36.2 0c-5.7 0-10.2 5-10.2 11.2s4.6 11.2 10.2 11.2c5.7 0 10.3-5 10.2-11.2 0-6.2-4.5-11.2-10.2-11.2z"/><path fill="#ffffff" d="M189.5 20h-134C40 20 30 30 30 41.5v157c0 11.5 10 21.5 22.5 21.5h112.2l-5.3-18.6 12.8 11.9 12.1 11.1 21.5 18V41.5c0-11.5-10-21.5-22.3-21.5zM155 162.6s-4.2-5-7.7-9.4c15.3-4.3 21.1-13.8 21.1-13.8-4.8 3.1-9.3 5.3-13.4 6.8-5.8 2.4-11.3 4-16.7 5-11 2-21 1.5-29.5-.1-6.5-1.2-12.1-3-16.7-5-2.6-1-5.4-2.3-8.2-3.9-.3-.2-.6-.3-.9-.5-.2-.1-.3-.2-.4-.3-1.8-1-2.8-1.7-2.8-1.7s5.6 9.3 20.4 13.7c-3.5 4.4-7.8 9.7-7.8 9.7-25.8-.8-35.6-17.7-35.6-17.7 0-37.6 16.8-68.2 16.8-68.2 16.8-12.5 32.8-12.2 32.8-12.2l1.2 1.4c-21 6-30.7 15-30.7 15s2.6-1.4 7-3.4c12.6-5.5 22.6-7 26.7-7.4.7-.1 1.4-.2 2.1-.2 7.5-1 16-1.3 24.8-.3 11.7 1.3 24.2 4.6 37 11.3 0 0-9.2-8.8-29-14.7l1.7-1.9s15.9-.3 32.8 12.2c0 0 16.8 30.6 16.8 68.2 0 0-9.8 16.9-35.6 17.7z"/></svg>