<svg xmlns="http://www.w3.org/2000/svg" viewBox="0 0 448 512"><path fill="#ffffff" d="M224 202.7c-31.1 0-56.3 25.2-56.3 56.3S192.9 315.3 224 315.3 280.3 290.1 280.3 259 255.1 202.7 224 202.7zM398.8 80c-9.4-9.4-22.4-14.7-35.8-14.7H85c-13.4 0-26.4 5.3-35.8 14.7S34.5 102.4 34.5 115.8v277c0 13.4 5.3 26.4 14.7 35.8s22.4 14.7 35.8 14.7h277.9c13.4 0 26.4-5.3 35.8-14.7s14.7-22.4 14.7-35.8V115.8c0-13.4-5.3-26.4-14.7-35.8zM224 338.6c-43.9 0-79.6-35.7-79.6-79.6s35.7-79.6 79.6-79.6 79.6 35.7 79.6 79.6-35.7 79.6-79.6 79.6zm95.1-154.7c-10.9 0-19.7-8.8-19.7-19.7s8.8-19.7 19.7-19.7 19.7 8.8 19.7 19.7-8.8 19.7-19.7 19.7z"/></svg>