<svg xmlns="http://www.w3.org/2000/svg" viewBox="0 0 512 512"><path fill="#ffffff" d="M374.5 266.7c0-14.2-11.5-25.7-25.7-25.7-14.2 0-25.7 11.5-25.7 25.7 0 14.2 11.5 25.7 25.7 25.7 14.2 0 25.7-11.5 25.7-25.7zm-237 0c0-14.2 11.5-25.7 25.7-25.7 14.2 0 25.7 11.5 25.7 25.7 0 14.2-11.5 25.7-25.7 25.7-14.2 0-25.7-11.5-25.7-25.7zM512 256c0-141.4-114.6-256-256-256S0 114.6 0 256c0 120.3 84.4 220.9 197.8 248.6-2.6-11-5.1-27.6 1.1-39.5 5.6-10.8 36.6-73.2 36.6-73.2s-9.1-18.2-9.1-45.1c0-42.3 24.6-73.8 55.3-73.8 26.1 0 38.6 19.6 38.6 43.1 0 26.3-16.8 65.6-25.4 102.1-7.3 30.8 15.5 55.9 45.9 55.9 55.1 0 92.1-70.9 92.1-154.9 0-63.9-43.1-111.7-121.4-111.7-88.5 0-144.4 66.2-144.4 140.1 0 25.6 7.5 43.6 19.2 57.5 5.4 6.4 6.2 9 4.2 16.4-1.4 5.4-4.6 18.2-6 23.3-2 7.5-8.1 10.2-14.9 7.4-41.7-17-61.2-62.7-61.2-114.2 0-84.6 71.2-185.8 212.2-185.8 113.3 0 188.2 82.1 188.2 170.3 0 116.3-64.8 203.2-160.6 203.2-32.1 0-62.3-17.4-72.6-37.1 0 0-17.2 65.9-20.7 78.3-6.3 22.8-18.6 45.6-29.8 63.1C217.5 511.1 236.4 512 256 512c141.4 0 256-114.6 256-256z"/></svg>